<svg width="88" height="88" viewBox="0 0 88 88" fill="none" xmlns="http://www.w3.org/2000/svg">
<g clip-path="url(#clip0_24_137)">
<path d="M88.0415 44.0275C88.0415 68.3458 68.3308 88.055 44.014 88.055C19.6984 88.055 -0.0135498 68.3513 -0.0135498 44.0275C-0.0135498 19.7148 19.6943 0 44.014 0C68.324 0 88.0415 19.7079 88.0415 44.0275Z" fill="#1E75BB"/>
<path d="M20.9537 56.7463C13.1533 40.0111 12.8027 22 19.8578 7.10876C7.90356 14.9765 0.00280762 28.4996 0.00280762 43.8818C0.00280762 68.1986 19.7079 87.9093 44.0303 87.9093C44.4648 87.9093 44.8897 87.8556 45.3187 87.8446C35.2262 79.3513 26.7218 69.1309 20.9592 56.7573" fill="#186DA3"/>
<path d="M69.2588 61.4639C68.9755 63.8028 66.6985 64.1451 65.5889 65.6576C66.0619 68.3086 63.6955 72.6014 66.3768 73.0015C68.9219 73.3838 69.3935 65.3098 69.7854 61.9878C69.4375 61.9823 69.5461 61.5258 69.2588 61.4611M65.4418 5.40513C63.9664 6.53126 61.3456 4.96651 59.8524 4.73138C58.3151 5.37626 56.9498 6.19988 55.1279 6.56701C54.8336 7.33013 55.187 8.46313 55.3933 9.44901C57.057 10.4816 59.3409 10.043 61.6839 9.97426C61.1903 12.6129 61.3305 15.0521 59.3244 15.7438C56.8576 16.5921 53.5879 14.289 50.9396 14.1721C49.7833 14.4196 50.0858 16.115 48.8345 16.2676C46.7803 15.0013 44.1595 14.3028 42.5466 12.5964C43.0334 11.9116 42.9165 10.0925 42.2826 9.71163C37.8235 9.47926 33.8924 12.1811 30.4838 11.286C30.0589 12.7889 28.765 13.4131 27.863 14.4334C28.2975 18.6629 23.518 19.723 22.616 23.0849C22.0014 25.3756 23.2196 28.281 22.0935 30.9513C24.8573 33.4084 25.0085 38.8259 29.1734 39.3429C31.9688 39.6894 34.2898 38.1879 37.5581 37.7685C38.8149 38.7585 39.1573 39.9713 41.4948 39.3429C42.7048 40.766 41.0053 44.4359 42.0214 45.8989C43.9354 48.6626 45.3736 50.5959 44.9034 54.0265C44.7068 55.4606 43.5105 56.7421 43.593 58.2244C43.6521 59.3533 44.6064 60.3364 44.9034 61.3676C45.9044 64.8849 46.2564 69.0951 48.3079 72.1215C48.5031 72.9204 47.8624 72.8915 48.0466 73.6931C49.5536 74.8578 54.2094 74.096 55.6531 73.1679C58.6135 71.2786 58.0869 66.5528 60.8946 64.7776C61.3291 63.459 60.6774 62.3893 60.6389 60.8479C61.5794 59.3395 63.2926 58.608 64.5686 57.4379C65.67 53.68 63.547 51.2023 63.7863 47.4719C66.8099 42.5453 71.7351 39.5175 73.2201 33.0495C71.5776 33.4774 69.9156 33.827 68.2399 34.0973C66.0096 31.7873 64.3184 28.9314 62.4759 26.2323C62.9035 22.0935 58.861 19.756 59.5884 17.0541C60.1274 17.1284 59.8276 18.0331 60.3708 18.1019C61.49 15.8304 62.2256 20.5315 62.7316 21.5119C62.9324 21.8983 63.7918 22.1004 64.0448 22.5596C64.3844 23.1853 64.0901 23.9786 64.3074 24.6565C64.8354 26.3299 66.6339 27.0696 66.9281 28.853C67.1784 30.3738 66.8085 30.9925 67.4561 31.7364C72.3786 29.8471 77.55 28.2026 79.255 23.0849C77.8951 22.6078 77.1196 21.549 76.3661 20.4628C75.7364 21.4926 74.7739 22.1856 73.2188 22.297C72.6316 20.086 71.1356 18.7921 70.598 16.5275C72.9149 15.4866 73.2353 18.5776 74.7959 19.1496H77.1568C77.7494 20.581 79.6166 20.7433 81.6475 20.7405C77.6518 14.3481 72.0844 9.03513 65.4418 5.40513Z" fill="#00A650"/>
<path d="M34.155 2.89578C33.6229 2.9714 33.6366 3.60528 33.1031 3.6809C31.4614 3.8514 29.7619 2.9274 28.38 3.6809C28.5436 5.58803 28.1848 6.9754 28.1243 8.66253C29.9571 10.582 32.7951 10.1558 34.6761 8.40403C34.5235 7.55153 34.8549 7.18028 34.9374 6.56703C36.8101 6.3429 37.0576 4.48528 38.0806 3.41965C39.7705 3.70565 40.348 2.88203 41.4948 2.63315C43.208 4.85653 46.398 5.59353 47.2629 8.66253C47.6108 7.57903 47.4375 6.22328 48.5733 6.56703C46.7294 5.59765 42.8918 3.07453 44.9034 0.796152C47.443 2.66065 49.3446 6.35115 51.5158 8.04515C51.5433 7.98053 51.6079 7.92003 51.722 7.87603C53.2001 8.79453 51.0084 8.80553 51.1995 9.9729C52.0561 9.87253 52.349 9.20565 53.0324 8.92378C53.0805 7.82515 51.7426 8.1139 51.9791 6.82828C52.9444 6.03903 54.8969 6.24253 55.9103 5.51653C55.6852 4.22539 55.9814 2.89772 56.7339 1.82465C52.7155 0.639513 48.5484 0.0343613 44.3589 0.0275269C40.8183 0.0275269 37.4014 0.489527 34.1055 1.27603C34.2169 1.7229 34.2554 2.24403 34.1605 2.89578" fill="#00A650"/>
</g>
<defs>
<clipPath id="clip0_24_137">
<rect width="88" height="88" fill="white"/>
</clipPath>
</defs>
</svg>
