<svg width="88" height="88" viewBox="0 0 88 88" fill="none" xmlns="http://www.w3.org/2000/svg">
<path d="M10.7251 18.8581C16.2389 17.1669 21.0445 22.4262 25.0182 21.175C30.8276 19.3394 34.1964 18.9681 40.4114 20.8931C46.6745 22.8387 53.9826 28.215 59.297 31.9344C63.9789 35.2137 70.0564 40.5487 74.0989 44.66C76.7182 47.3275 76.6495 49.1631 76.1339 50.5381C75.467 52.3119 73.5489 53.2606 71.1907 53.1712C70.9432 53.1644 70.7507 53.3912 70.8401 53.625C71.672 55.9419 70.902 57.9287 69.7814 58.9187C68.1176 60.3831 66.2132 60.6925 64.0407 59.9156C63.9869 59.8971 63.929 59.8936 63.8733 59.9055C63.8176 59.9173 63.7661 59.9441 63.7244 59.9829C63.6828 60.0218 63.6525 60.0712 63.6367 60.126C63.621 60.1807 63.6204 60.2387 63.6351 60.2937C64.1026 62.0881 63.5457 63.8481 62.0676 64.9344C60.4864 66.0894 59.0014 66.0481 56.6089 65.175C56.3614 65.0856 56.1207 65.2644 56.107 65.5256C56.052 66.6256 55.1857 67.4712 54.677 67.9662C52.4426 70.1525 48.5789 68.6606 45.3476 67.1137C39.002 64.0819 30.4976 57.695 24.3995 54.2025C17.2426 50.105 0.288857 41.0644 0.976357 33.5087C1.28573 30.085 5.62386 20.7625 10.7251 18.8581Z" fill="#FAC036"/>
<mask id="mask0_24_156" style="mask-type:luminance" maskUnits="userSpaceOnUse" x="0" y="18" width="77" height="52">
<path d="M10.7251 18.8581C16.2389 17.1669 21.0445 22.4262 25.0182 21.175C30.8276 19.3394 34.1964 18.9681 40.4114 20.8931C46.6745 22.8387 53.9826 28.215 59.297 31.9344C63.9789 35.2137 70.0564 40.5487 74.0989 44.66C76.7182 47.3275 76.6495 49.1631 76.1339 50.5381C75.467 52.3119 73.5489 53.2606 71.1907 53.1712C70.9432 53.1644 70.7507 53.3912 70.8401 53.625C71.672 55.9419 70.902 57.9287 69.7814 58.9187C68.1176 60.3831 66.2132 60.6925 64.0407 59.9156C63.9869 59.8971 63.929 59.8936 63.8733 59.9055C63.8176 59.9173 63.7661 59.9441 63.7244 59.9829C63.6828 60.0218 63.6525 60.0712 63.6367 60.126C63.621 60.1807 63.6204 60.2387 63.6351 60.2937C64.1026 62.0881 63.5457 63.8481 62.0676 64.9344C60.4864 66.0894 59.0014 66.0481 56.6089 65.175C56.3614 65.0856 56.1207 65.2644 56.107 65.5256C56.052 66.6256 55.1857 67.4712 54.677 67.9662C52.4426 70.1525 48.5789 68.6606 45.3476 67.1137C39.002 64.0819 30.4976 57.695 24.3995 54.2025C17.2426 50.105 0.288857 41.0644 0.976357 33.5087C1.28573 30.085 5.62386 20.7625 10.7251 18.8581Z" fill="white"/>
</mask>
<g mask="url(#mask0_24_156)">
<path d="M70.895 41.4494C72.0088 42.7075 72.4007 45.3956 71.1563 47.2244C69.8088 49.2044 67.8013 49.0737 67.2582 49.6169C66.7082 50.1669 67.2857 52.1262 65.3125 53.8862C63.1538 55.8044 60.8988 54.8487 60.1563 55.4331C59.5513 55.9075 60.2663 57.8325 57.64 59.6819C54.9313 61.5931 52.5457 60.7681 52.1194 61.1462C51.4732 61.7237 52.3119 62.6381 49.7544 64.8862C47.19 67.1344 41.5457 63.7587 40.0469 63.2087C39.6275 63.0575 38.4588 63.7244 38.5688 64.1575C38.6238 64.3706 49.6307 71.3075 53.5082 71.39C57.5782 71.4725 61.765 71.0669 65.4088 69.2381C66.7975 68.5437 68.0763 67.6569 69.3069 66.715C72.4007 64.3431 75.2675 61.4969 76.7938 57.9081C77.9007 55.3162 78.2444 52.4631 78.3957 49.6444C78.5194 47.3687 78.375 44.7562 76.6013 43.3262C75.1782 42.1781 72.5863 41.3669 70.895 41.4494Z" fill="#E48C15"/>
</g>
<path d="M72.93 45.8837C76.0512 43.8006 83.6068 39.6412 85.5456 34.4369C86.8518 30.9306 83.2287 28.0225 81.3106 25.7125C78.8287 22.7356 74.2775 20.4394 70.6543 21.3125C68.4887 21.835 63.8206 23.5125 60.8643 23.4231C57.2618 23.3062 55.3506 23.1756 52.9787 22.8112C51.1225 22.5294 48.4068 22.8731 45.0037 23.9456C41.5731 25.025 38.8093 26.2694 35.3581 28.5106C33.9968 29.3975 32.3537 30.8894 31.46 32.3606C30.1056 34.5881 31.8518 38.0944 35.2206 38.5413C39.5656 39.1187 44.1375 34.4025 49.0393 32.3606C50.49 31.7556 52.0368 30.9031 53.9687 31.0681C56.1275 31.2606 65.3537 38.6169 72.93 45.8837Z" fill="#E48C15"/>
<path d="M72.93 45.8837C76.0512 43.8006 83.6068 39.6412 85.5456 34.4369C86.8518 30.9306 83.2287 28.0225 81.3106 25.7125C78.8287 22.7356 74.2775 20.4394 70.6543 21.3125C68.4887 21.835 63.8206 23.5125 60.8643 23.4231C57.2618 23.3062 55.3506 23.1756 52.9787 22.8112C51.1225 22.5294 48.4068 22.8731 45.0037 23.9456C41.5731 25.025 38.8093 26.2694 35.3581 28.5106C33.9968 29.3975 32.3537 30.8894 31.46 32.3606C30.1056 34.5881 31.8518 38.0944 35.2206 38.5413C39.5656 39.1188 44.1375 34.4025 49.0393 32.3606C50.49 31.7556 52.0368 30.9031 53.9687 31.0681C56.1275 31.2606 65.3537 38.6169 72.93 45.8837" stroke="#E48C15" stroke-width="2.75" stroke-miterlimit="10"/>
<path d="M46.1932 58.9462C46.1932 58.9462 46.1657 62.205 45.7257 63.305C45.2857 64.405 44.9832 65.7456 44.2476 66.5706L45.4232 67.155C47.3345 64.4943 47.7607 63.5937 47.7607 61.8062C47.7538 59.8468 46.1932 58.9462 46.1932 58.9462ZM22.7151 47.3137C22.7151 47.3137 23.8357 49.1356 23.3957 50.2356C22.9557 51.3356 22.722 52.4562 21.9863 53.2812C21.9863 53.2812 22.2545 52.9925 22.6051 53.1918C22.942 53.3843 22.7288 53.7831 22.7288 53.7831L23.7876 52.5868C24.4132 51.7962 24.4545 50.5518 24.1657 49.4587C23.7945 48.0425 22.7151 47.3137 22.7151 47.3137ZM30.8138 50.2493C30.8138 50.2493 31.0682 53.5768 30.6351 54.6768C30.1951 55.7768 29.9613 56.8975 29.2257 57.7225C29.2257 57.7225 29.652 57.5025 29.9957 57.695C30.3326 57.8875 30.147 58.4237 30.147 58.4237L31.6732 56.6362C32.2988 55.8456 32.5463 54.3812 32.4295 53.0818C32.2645 51.2531 30.8138 50.2493 30.8138 50.2493ZM40.0882 53.5493C40.0882 53.5493 38.6101 58.5268 38.1701 59.6268C37.7301 60.7268 37.5238 61.875 36.7882 62.7C36.7882 62.7 37.2007 62.4387 37.5445 62.6312C37.8813 62.8237 37.6888 63.3737 37.6888 63.3737L39.5451 61.215C40.1707 60.4243 41.4907 58.3687 41.4838 56.2925C41.4701 54.3331 40.0882 53.5493 40.0882 53.5493Z" fill="#E48C15"/>
<path d="M46.3443 65.5531C43.9174 68.0831 41.5386 69.7538 39.3386 67.6363C37.173 65.56 38.7061 63.085 41.133 60.5481C43.5599 58.0113 46.4061 56.3475 48.3655 58.2313C50.3593 60.1494 48.7711 63.0231 46.3443 65.5531Z" fill="#E48C15"/>
<path d="M46.3443 65.5531C43.9174 68.0831 41.5386 69.7538 39.3386 67.6363C37.173 65.56 38.7061 63.085 41.133 60.5481C43.5599 58.0113 46.4061 56.3475 48.3655 58.2313C50.3593 60.1494 48.7711 63.0231 46.3443 65.5531Z" stroke="#E48C15" stroke-width="1.375" stroke-miterlimit="10"/>
<path d="M39.0019 61.325C35.475 65.3606 33.0481 66.6325 30.6144 64.3019C28.2219 62.0056 30.3256 59.0838 33.2406 55.7975C36.9394 51.6381 39.7444 50.4556 41.91 52.525C44.1169 54.6494 42.7556 57.0281 39.0019 61.325Z" fill="#E48C15"/>
<path d="M39.0019 61.325C35.475 65.3606 33.0481 66.6325 30.6144 64.3019C28.2219 62.0056 30.3256 59.0838 33.2406 55.7975C36.9394 51.6381 39.7444 50.4556 41.91 52.525C44.1169 54.6494 42.7556 57.0281 39.0019 61.325" stroke="#E48C15" stroke-width="1.375" stroke-miterlimit="10"/>
<path d="M30.3874 57.2825C27.7199 60.0462 25.1486 61.8956 22.8318 59.6681C20.5561 57.4887 22.3574 54.8969 24.908 52.0231C27.6993 48.8675 30.6486 47.4031 32.7111 49.3762C34.808 51.3906 33.6324 53.9206 30.3874 57.2825Z" fill="#E48C15"/>
<path d="M30.3874 57.2825C27.7199 60.0462 25.1486 61.8956 22.8318 59.6681C20.5561 57.4887 22.3574 54.8969 24.908 52.0231C27.6993 48.8675 30.6486 47.4031 32.7111 49.3762C34.808 51.3906 33.6324 53.9206 30.3874 57.2825Z" stroke="#E48C15" stroke-width="1.375" stroke-miterlimit="10"/>
<path d="M22.8594 52.9788C20.7281 55.1994 18.59 56.6019 16.335 54.4363C14.1213 52.3119 15.3931 50.0775 17.5244 47.8569C19.6556 45.6363 22.2406 44.2681 24.2481 46.1931C26.29 48.1525 24.9906 50.7581 22.8594 52.9788Z" fill="#E48C15"/>
<path d="M22.8594 52.9788C20.7281 55.1994 18.59 56.6019 16.335 54.4363C14.1213 52.3119 15.3931 50.0775 17.5244 47.8569C19.6556 45.6363 22.2406 44.2681 24.2481 46.1931C26.29 48.1525 24.9906 50.7581 22.8594 52.9788" stroke="#E48C15" stroke-width="1.375" stroke-miterlimit="10"/>
<path d="M73.7068 44.2819C76.9312 42.13 84.7549 37.8262 86.7556 32.4362C88.1031 28.8131 84.3631 25.8019 82.3762 23.4094C79.8118 20.3294 75.1024 17.9506 71.3487 18.8512C69.1074 19.3875 64.2812 21.1269 61.2149 21.0306C57.4818 20.9137 55.5156 20.7762 53.0612 20.3981C51.1362 20.1025 48.3312 20.46 44.8112 21.5669C41.2637 22.6806 38.4037 23.9662 34.8356 26.29C33.4331 27.2044 31.7281 28.7512 30.8068 30.2775C29.4112 32.5875 31.2124 36.2106 34.6981 36.6712C39.1943 37.2694 43.9243 32.3881 48.9912 30.2775C50.4899 29.6519 52.0918 28.7719 54.0856 28.9437C56.3268 29.1569 65.8693 36.7606 73.7068 44.2819Z" fill="#FAC036"/>
<path d="M44.4468 66.3575C42.0543 68.8463 39.7237 70.4894 37.5581 68.4063C35.4337 66.3644 36.9325 63.9306 39.325 61.435C41.7175 58.9463 44.5087 57.3031 46.4337 59.1525C48.4 61.0431 46.8393 63.8688 44.4468 66.3575Z" fill="#FAC036"/>
<path d="M37.2281 62.1981C33.7563 66.165 31.3706 67.4231 28.9781 65.1268C26.6269 62.8718 28.6894 59.9912 31.5631 56.7668C35.2 52.6762 37.9638 51.5075 40.0881 53.5493C42.2538 55.6325 40.92 57.9768 37.2281 62.1981Z" fill="#FAC036"/>
<path d="M28.7514 58.2175C26.1251 60.9331 23.5951 62.7481 21.3195 60.5687C19.0851 58.4237 20.852 55.8731 23.3614 53.0475C26.1114 49.9469 29.0057 48.5031 31.0339 50.4487C33.1032 52.4287 31.9482 54.9175 28.7514 58.2175Z" fill="#FAC036"/>
<path d="M21.3538 53.9893C19.257 56.1756 17.1532 57.5506 14.9326 55.4262C12.7532 53.3362 14.0045 51.1362 16.1013 48.9568C18.1982 46.7706 20.742 45.43 22.7151 47.3206C24.7295 49.2456 23.4507 51.8031 21.3538 53.9893Z" fill="#FAC036"/>
</svg>
