<svg width="330" height="41" viewBox="0 0 330 41" fill="none" xmlns="http://www.w3.org/2000/svg">
<path d="M13.5317 31H8.13172V6.76H0.691719V2.44H20.9317V6.76H13.5317V31ZM29.8133 7.84C29.8133 8.69333 29.7733 9.53333 29.6933 10.36C29.6399 11.16 29.5866 11.76 29.5333 12.16H29.8533C30.2799 11.4133 30.7866 10.8133 31.3733 10.36C31.9866 9.88 32.6666 9.52 33.4133 9.28C34.1866 9.04 34.9866 8.92 35.8133 8.92C37.3333 8.92 38.6399 9.2 39.7333 9.76C40.8266 10.32 41.6799 11.1867 42.2933 12.36C42.9066 13.5067 43.2133 15.0133 43.2133 16.88V31H37.8933V17.88C37.8933 16.2267 37.6133 15 37.0533 14.2C36.4933 13.4 35.6133 13 34.4133 13C33.2666 13 32.3466 13.2933 31.6533 13.88C30.9599 14.44 30.4799 15.28 30.2133 16.4C29.9466 17.4933 29.8133 18.84 29.8133 20.44V31H24.4933V0.599998H29.8133V7.84ZM57.3883 8.92C59.2549 8.92 60.8549 9.32 62.1883 10.12C63.5483 10.8933 64.6016 12.0133 65.3483 13.48C66.0949 14.92 66.4683 16.68 66.4683 18.76V21.32H53.1883C53.2416 23.2933 53.7216 24.8267 54.6283 25.92C55.5616 26.9867 56.8683 27.52 58.5483 27.52C59.8816 27.52 61.0683 27.3867 62.1083 27.12C63.1483 26.8267 64.2283 26.4133 65.3483 25.88V29.92C64.3349 30.4267 63.2816 30.8 62.1883 31.04C61.0949 31.28 59.7483 31.4 58.1483 31.4C56.1216 31.4 54.3216 31 52.7483 30.2C51.2016 29.3733 49.9883 28.1333 49.1083 26.48C48.2283 24.8267 47.7883 22.7733 47.7883 20.32C47.7883 17.84 48.1883 15.76 48.9883 14.08C49.7883 12.3733 50.9083 11.0933 52.3483 10.24C53.8149 9.36 55.4949 8.92 57.3883 8.92ZM57.4683 12.64C56.2683 12.64 55.2949 13.08 54.5483 13.96C53.8283 14.8133 53.4016 16.0933 53.2683 17.8H61.4283C61.4283 16.7867 61.2816 15.8933 60.9883 15.12C60.6949 14.3467 60.2549 13.7467 59.6683 13.32C59.1083 12.8667 58.3749 12.64 57.4683 12.64ZM102.902 20.92C102.902 22.8933 102.489 24.68 101.662 26.28C100.862 27.8533 99.6357 29.1067 97.9823 30.04C96.3557 30.9467 94.3157 31.4 91.8623 31.4C88.3423 31.4 85.649 30.44 83.7823 28.52C81.9423 26.5733 81.0223 24.0133 81.0223 20.84V2.44H86.3823V20.32C86.3823 22.64 86.849 24.3467 87.7823 25.44C88.7157 26.5067 90.1157 27.04 91.9823 27.04C93.289 27.04 94.3423 26.7867 95.1423 26.28C95.969 25.7733 96.569 25.0133 96.9423 24C97.3157 22.96 97.5023 21.72 97.5023 20.28V2.44H102.902V20.92ZM115.627 31.4C113.307 31.4 111.427 30.4667 109.987 28.6C108.547 26.7067 107.827 23.9067 107.827 20.2C107.827 16.4933 108.561 13.6933 110.027 11.8C111.494 9.88 113.414 8.92 115.787 8.92C116.774 8.92 117.627 9.06667 118.347 9.36C119.094 9.62667 119.734 10 120.267 10.48C120.801 10.96 121.267 11.4933 121.667 12.08H121.827C121.774 11.7067 121.707 11.1333 121.627 10.36C121.547 9.58667 121.507 8.86667 121.507 8.2V0.599998H126.827V31H122.747L121.747 28.16H121.507C121.161 28.7467 120.721 29.2933 120.187 29.8C119.654 30.28 119.014 30.6667 118.267 30.96C117.521 31.2533 116.641 31.4 115.627 31.4ZM117.387 27.32C119.014 27.32 120.161 26.7867 120.827 25.72C121.494 24.6533 121.827 23.04 121.827 20.88V20.24C121.827 17.8933 121.507 16.1067 120.867 14.88C120.227 13.6533 119.054 13.04 117.347 13.04C116.014 13.04 114.987 13.68 114.267 14.96C113.574 16.2133 113.227 17.9867 113.227 20.28C113.227 22.5733 113.587 24.32 114.307 25.52C115.027 26.72 116.054 27.32 117.387 27.32ZM141.259 8.92C143.873 8.92 145.873 9.53333 147.259 10.76C148.646 11.96 149.339 13.8533 149.339 16.44V31H145.619L144.579 28H144.419C143.833 28.7733 143.233 29.4267 142.619 29.96C142.006 30.4667 141.299 30.8267 140.499 31.04C139.699 31.28 138.739 31.4 137.619 31.4C136.419 31.4 135.339 31.16 134.379 30.68C133.419 30.2 132.659 29.4667 132.099 28.48C131.539 27.4667 131.259 26.2 131.259 24.68C131.259 22.44 132.033 20.76 133.579 19.64C135.126 18.4933 137.446 17.8667 140.539 17.76L144.019 17.64V16.56C144.019 15.1733 143.726 14.1867 143.139 13.6C142.553 13.0133 141.753 12.72 140.739 12.72C139.779 12.72 138.806 12.88 137.819 13.2C136.859 13.52 135.913 13.8933 134.979 14.32L133.339 10.8C134.433 10.24 135.646 9.78667 136.979 9.44C138.313 9.09333 139.739 8.92 141.259 8.92ZM141.779 20.84C139.886 20.92 138.566 21.3067 137.819 22C137.073 22.6667 136.699 23.5733 136.699 24.72C136.699 25.7333 136.953 26.4667 137.459 26.92C137.993 27.3733 138.686 27.6 139.539 27.6C140.793 27.6 141.859 27.1867 142.739 26.36C143.619 25.5067 144.059 24.2533 144.059 22.6V20.76L141.779 20.84ZM166.042 8.92C166.415 8.92 166.802 8.93333 167.202 8.96C167.602 8.98667 167.935 9.04 168.202 9.12L167.722 13.8C167.455 13.7467 167.135 13.7067 166.762 13.68C166.415 13.6267 166.042 13.6 165.642 13.6C164.975 13.6 164.322 13.7333 163.682 14C163.042 14.24 162.469 14.6133 161.962 15.12C161.455 15.6 161.042 16.2267 160.722 17C160.429 17.7733 160.282 18.6933 160.282 19.76V31H154.962V9.32H159.042L159.762 13.08H160.042C160.442 12.3067 160.935 11.6133 161.522 11C162.135 10.36 162.815 9.85333 163.562 9.48C164.335 9.10666 165.162 8.92 166.042 8.92ZM179.619 8.92C182.232 8.92 184.232 9.53333 185.619 10.76C187.005 11.96 187.699 13.8533 187.699 16.44V31H183.979L182.939 28H182.779C182.192 28.7733 181.592 29.4267 180.979 29.96C180.365 30.4667 179.659 30.8267 178.859 31.04C178.059 31.28 177.099 31.4 175.979 31.4C174.779 31.4 173.699 31.16 172.739 30.68C171.779 30.2 171.019 29.4667 170.459 28.48C169.899 27.4667 169.619 26.2 169.619 24.68C169.619 22.44 170.392 20.76 171.939 19.64C173.485 18.4933 175.805 17.8667 178.899 17.76L182.379 17.64V16.56C182.379 15.1733 182.085 14.1867 181.499 13.6C180.912 13.0133 180.112 12.72 179.099 12.72C178.139 12.72 177.165 12.88 176.179 13.2C175.219 13.52 174.272 13.8933 173.339 14.32L171.699 10.8C172.792 10.24 174.005 9.78667 175.339 9.44C176.672 9.09333 178.099 8.92 179.619 8.92ZM180.139 20.84C178.245 20.92 176.925 21.3067 176.179 22C175.432 22.6667 175.059 23.5733 175.059 24.72C175.059 25.7333 175.312 26.4667 175.819 26.92C176.352 27.3733 177.045 27.6 177.899 27.6C179.152 27.6 180.219 27.1867 181.099 26.36C181.979 25.5067 182.419 24.2533 182.419 22.6V20.76L180.139 20.84ZM211.807 2.44C215.274 2.44 217.82 3.21333 219.447 4.76C221.074 6.30667 221.887 8.44 221.887 11.16C221.887 12.3867 221.714 13.56 221.367 14.68C221.02 15.7733 220.434 16.76 219.607 17.64C218.807 18.52 217.74 19.2133 216.407 19.72C215.074 20.2267 213.434 20.48 211.487 20.48H208.927V31H203.567V2.44H211.807ZM211.607 6.68H208.927V16.24H210.927C212.1 16.24 213.1 16.08 213.927 15.76C214.754 15.4133 215.38 14.88 215.807 14.16C216.26 13.44 216.487 12.5067 216.487 11.36C216.487 9.78667 216.087 8.61333 215.287 7.84C214.487 7.06666 213.26 6.68 211.607 6.68ZM237.565 8.92C237.939 8.92 238.325 8.93333 238.725 8.96C239.125 8.98667 239.459 9.04 239.725 9.12L239.245 13.8C238.979 13.7467 238.659 13.7067 238.285 13.68C237.939 13.6267 237.565 13.6 237.165 13.6C236.499 13.6 235.845 13.7333 235.205 14C234.565 14.24 233.992 14.6133 233.485 15.12C232.979 15.6 232.565 16.2267 232.245 17C231.952 17.7733 231.805 18.6933 231.805 19.76V31H226.485V9.32H230.565L231.285 13.08H231.565C231.965 12.3067 232.459 11.6133 233.045 11C233.659 10.36 234.339 9.85333 235.085 9.48C235.859 9.10666 236.685 8.92 237.565 8.92ZM261.102 20.12C261.102 21.9333 260.875 23.5333 260.422 24.92C259.969 26.3067 259.302 27.4933 258.422 28.48C257.569 29.44 256.529 30.1733 255.302 30.68C254.075 31.16 252.702 31.4 251.182 31.4C249.769 31.4 248.449 31.16 247.222 30.68C246.022 30.1733 244.982 29.44 244.102 28.48C243.249 27.4933 242.582 26.3067 242.102 24.92C241.622 23.5333 241.382 21.9333 241.382 20.12C241.382 17.72 241.769 15.6933 242.542 14.04C243.342 12.36 244.489 11.0933 245.982 10.24C247.475 9.36 249.249 8.92 251.302 8.92C253.222 8.92 254.915 9.36 256.382 10.24C257.849 11.0933 258.995 12.36 259.822 14.04C260.675 15.6933 261.102 17.72 261.102 20.12ZM246.782 20.12C246.782 21.64 246.942 22.9467 247.262 24.04C247.582 25.1067 248.062 25.92 248.702 26.48C249.369 27.04 250.222 27.32 251.262 27.32C252.302 27.32 253.142 27.04 253.782 26.48C254.449 25.92 254.929 25.1067 255.222 24.04C255.542 22.9467 255.702 21.64 255.702 20.12C255.702 18.5733 255.542 17.28 255.222 16.24C254.902 15.1733 254.409 14.3733 253.742 13.84C253.102 13.28 252.262 13 251.222 13C249.649 13 248.515 13.6133 247.822 14.84C247.129 16.0667 246.782 17.8267 246.782 20.12ZM264.183 40.6C263.597 40.6 262.983 40.5467 262.343 40.44C261.703 40.36 261.17 40.2533 260.743 40.12V36.12C261.143 36.2267 261.543 36.32 261.943 36.4C262.317 36.48 262.73 36.52 263.183 36.52C263.903 36.52 264.517 36.28 265.023 35.8C265.53 35.3467 265.783 34.4667 265.783 33.16V9.32H271.023V33.68C271.023 35.0133 270.797 36.2 270.343 37.24C269.917 38.28 269.197 39.0933 268.183 39.68C267.197 40.2933 265.863 40.6 264.183 40.6ZM265.543 3.6C265.543 2.61333 265.823 1.93333 266.383 1.56C266.943 1.16 267.623 0.959998 268.423 0.959998C269.197 0.959998 269.863 1.16 270.423 1.56C271.01 1.93333 271.303 2.61333 271.303 3.6C271.303 4.56 271.01 5.25333 270.423 5.68C269.863 6.08 269.197 6.28 268.423 6.28C267.623 6.28 266.943 6.08 266.383 5.68C265.823 5.25333 265.543 4.56 265.543 3.6ZM285.357 8.92C287.224 8.92 288.824 9.32 290.157 10.12C291.517 10.8933 292.57 12.0133 293.317 13.48C294.064 14.92 294.437 16.68 294.437 18.76V21.32H281.157C281.21 23.2933 281.69 24.8267 282.597 25.92C283.53 26.9867 284.837 27.52 286.517 27.52C287.85 27.52 289.037 27.3867 290.077 27.12C291.117 26.8267 292.197 26.4133 293.317 25.88V29.92C292.304 30.4267 291.25 30.8 290.157 31.04C289.064 31.28 287.717 31.4 286.117 31.4C284.09 31.4 282.29 31 280.717 30.2C279.17 29.3733 277.957 28.1333 277.077 26.48C276.197 24.8267 275.757 22.7733 275.757 20.32C275.757 17.84 276.157 15.76 276.957 14.08C277.757 12.3733 278.877 11.0933 280.317 10.24C281.784 9.36 283.464 8.92 285.357 8.92ZM285.437 12.64C284.237 12.64 283.264 13.08 282.517 13.96C281.797 14.8133 281.37 16.0933 281.237 17.8H289.397C289.397 16.7867 289.25 15.8933 288.957 15.12C288.664 14.3467 288.224 13.7467 287.637 13.32C287.077 12.8667 286.344 12.64 285.437 12.64ZM307.625 31.4C305.625 31.4 303.892 31.0133 302.425 30.24C300.985 29.44 299.865 28.2267 299.065 26.6C298.292 24.9467 297.905 22.84 297.905 20.28C297.905 17.6133 298.332 15.4533 299.185 13.8C300.065 12.12 301.265 10.8933 302.785 10.12C304.332 9.32 306.079 8.92 308.025 8.92C309.252 8.92 310.399 9.05333 311.465 9.32C312.559 9.58667 313.465 9.90667 314.185 10.28L312.585 14.16C311.865 13.8667 311.145 13.6133 310.425 13.4C309.705 13.1867 308.985 13.08 308.265 13.08C307.172 13.08 306.265 13.3467 305.545 13.88C304.825 14.4133 304.265 15.2133 303.865 16.28C303.492 17.32 303.305 18.64 303.305 20.24C303.305 21.7867 303.492 23.08 303.865 24.12C304.265 25.16 304.825 25.9467 305.545 26.48C306.265 26.9867 307.145 27.24 308.185 27.24C309.225 27.24 310.185 27.0933 311.065 26.8C311.972 26.5067 312.825 26.1067 313.625 25.6V29.96C312.799 30.4667 311.919 30.8267 310.985 31.04C310.052 31.28 308.932 31.4 307.625 31.4ZM326.684 27.36C327.271 27.36 327.831 27.3067 328.364 27.2C328.924 27.0667 329.444 26.92 329.924 26.76V30.52C329.364 30.76 328.684 30.96 327.884 31.12C327.084 31.3067 326.191 31.4 325.204 31.4C323.978 31.4 322.884 31.2 321.924 30.8C320.964 30.3733 320.204 29.6533 319.644 28.64C319.111 27.6267 318.844 26.2133 318.844 24.4V13.12H316.124V10.92L319.164 9.16L320.764 4.56H324.124V9.32H329.724V13.12H324.124V24.36C324.124 25.3733 324.351 26.1333 324.804 26.64C325.284 27.12 325.911 27.36 326.684 27.36Z" fill="black"/>
</svg>
